2.2Hzhigh3min_grf.mot
version=1
nRows=17
nColumns 19
inDegrees=yes
endheader
time	1_ground_force_vx	1_ground_force_vy	1_ground_force_vz	1_ground_force_px	1_ground_force_py	1_ground_force_pz	1_ground_torque_x	1_ground_torque_y	1_ground_torque_z	2_ground_force_vx	2_ground_force_vy	2_ground_force_vz	2_ground_force_px	2_ground_force_py	2_ground_force_pz	2_ground_torque_x	2_ground_torque_y	2_ground_torque_z
            0.005000	          -28.156061	         1456.022752	         -167.072924	           -0.252079	            0.006098	           -0.376891	           -0.122901	            6.355533	           -0.729273	           -7.955004	         1360.449015	          115.841953	           -0.266289	            0.005418	           -0.668518	            0.042867	           -7.330993	           -0.624233
            0.005500	          -27.972292	         1452.598163	         -167.179770	           -0.251981	            0.006097	           -0.376805	           -0.120611	            6.263319	           -0.720846	           -6.969204	         1359.900663	          115.745708	           -0.266315	            0.005418	           -0.668579	            0.037723	           -7.360958	           -0.626516
            0.006000	          -27.650569	         1449.353233	         -167.102775	           -0.251975	            0.006097	           -0.376776	           -0.119141	            6.244970	           -0.720012	           -6.682828	         1358.428643	          115.646475	           -0.266349	            0.005418	           -0.668484	            0.036489	           -7.417138	           -0.631440
            0.006500	          -27.603893	         1446.648576	         -166.976912	           -0.252020	            0.006097	           -0.376751	           -0.116381	            6.099246	           -0.703995	           -6.072327	         1358.061679	          115.926471	           -0.266314	            0.005418	           -0.668483	            0.033217	           -7.428997	           -0.634152
            0.007000	          -26.916193	         1444.485988	         -167.125466	           -0.251981	            0.006097	           -0.376675	           -0.112072	            6.014443	           -0.695865	           -5.599258	         1356.774994	          115.733960	           -0.266374	            0.005418	           -0.668508	            0.030706	           -7.440469	           -0.634678
            0.007500	          -26.640557	         1440.700872	         -167.188247	           -0.251956	            0.006097	           -0.376707	           -0.108332	            5.858506	           -0.679859	           -4.703169	         1355.121093	          115.633811	           -0.266446	            0.005417	           -0.668448	            0.025661	           -7.393800	           -0.630920
            0.008000	          -25.814108	         1437.455009	         -166.929066	           -0.251802	            0.006097	           -0.376709	           -0.102458	            5.705346	           -0.662552	           -4.469002	         1355.122609	          115.445999	           -0.266322	            0.005418	           -0.668491	            0.023603	           -7.157194	           -0.609738
            0.008500	          -25.263253	         1434.029901	         -166.899250	           -0.251851	            0.006096	           -0.376602	           -0.098613	            5.597605	           -0.651476	           -3.758902	         1353.099203	          115.532329	           -0.266360	            0.005418	           -0.668427	            0.019832	           -7.138868	           -0.609541
            0.009000	          -24.574758	         1430.604624	         -166.823938	           -0.251822	            0.006096	           -0.376587	           -0.096053	            5.591656	           -0.652047	           -3.384808	         1353.284970	          115.438970	           -0.266384	            0.005418	           -0.668575	            0.017843	           -7.133865	           -0.608538
            0.009500	          -24.390368	         1426.277890	         -166.751240	           -0.251826	            0.006097	           -0.376623	           -0.094074	            5.501202	           -0.643165	           -2.584311	         1352.182622	          115.575466	           -0.266381	            0.005418	           -0.668680	            0.013695	           -7.165623	           -0.612469
            0.010000	          -23.747192	         1422.491224	         -166.493922	           -0.251820	            0.006097	           -0.376659	           -0.091018	            5.452112	           -0.638136	           -2.342833	         1350.158528	          115.380426	           -0.266446	            0.005418	           -0.668670	            0.012421	           -7.157894	           -0.611692
            0.010500	          -23.379110	         1420.146238	         -166.138034	           -0.251693	            0.006096	           -0.376543	           -0.087472	            5.313448	           -0.621602	           -1.636076	         1349.055932	          115.423121	           -0.266349	            0.005419	           -0.668677	            0.008661	           -7.141790	           -0.611040
            0.011000	          -22.781952	         1415.458795	         -166.022039	           -0.251660	            0.006096	           -0.376539	           -0.082090	            5.100339	           -0.598229	           -1.021189	         1347.401853	          115.088443	           -0.266404	            0.005418	           -0.668657	            0.005263	           -6.944207	           -0.593140
            0.011500	          -22.138776	         1411.672130	         -165.764751	           -0.251581	            0.006096	           -0.376508	           -0.077740	            4.957090	           -0.582083	           -0.495871	         1344.641543	          115.078368	           -0.266538	            0.005418	           -0.668585	            0.002507	           -6.798627	           -0.581846
            0.012000	          -21.496332	         1407.526492	         -165.829959	           -0.251576	            0.006096	           -0.376439	           -0.075366	            4.934764	           -0.581397	            0.255741	         1344.091599	          115.123014	           -0.266482	            0.005418	           -0.668785	           -0.001294	           -6.803286	           -0.582709
            0.012500	          -20.853105	         1402.838665	         -165.622373	           -0.251472	            0.006096	           -0.376462	           -0.072941	            4.906931	           -0.579324	            0.685886	         1341.700525	          114.785789	           -0.266364	            0.005418	           -0.668647	           -0.003448	           -6.745436	           -0.577089
            0.013000	          -20.255756	         1398.331002	         -165.413901	           -0.251503	            0.006096	           -0.376562	           -0.070242	            4.849082	           -0.573616	            1.488296	         1340.046119	          114.732616	           -0.266441	            0.005418	           -0.668727	           -0.007613	           -6.854884	           -0.586904
